<?xml version='1.0' encoding='iso-8859-1'?>
<!DOCTYPE svg PUBLIC '-//W3C//DTD SVG 1.1//EN' 'http://www.w3.org/Graphics/SVG/1.1/DTD/svg11.dtd'>
<svg version="1.1" xmlns="http://www.w3.org/2000/svg" viewBox="0 0 438 438" xmlns:xlink="http://www.w3.org/1999/xlink" enable-background="new 0 0 438 438">
  <path d="m399,381h-21.5v-157h8.5c4.143,0 7.5-3.358 7.5-7.5v-177.972c7.32-2.975 12.5-10.153 12.5-18.528 0-11.028-8.972-20-20-20s-20,8.972-20,20c0,8.375 5.18,15.553 12.5,18.528v20.472h-319v-20.472c7.32-2.975 12.5-10.153 12.5-18.528 0-11.028-8.972-20-20-20s-20,8.972-20,20c0,8.375 5.18,15.553 12.5,18.528v177.972c0,4.142 3.357,7.5 7.5,7.5h8.5v157h-21.5c-4.143,0-7.5,3.358-7.5,7.5v42c0,4.142 3.357,7.5 7.5,7.5h360c4.143,0 7.5-3.358 7.5-7.5v-42c0-4.142-3.357-7.5-7.5-7.5zm-339.5-269.5h319v22.5h-319v-22.5zm0,37.5h319v22.5h-319v-22.5zm326.5-134c2.757,0 5,2.243 5,5s-2.243,5-5,5-5-2.243-5-5 2.243-5 5-5zm-7.5,59v22.5h-319v-22.5h319zm-326.5-59c2.757,0 5,2.243 5,5s-2.243,5-5,5-5-2.243-5-5 2.243-5 5-5zm7.5,171.5h319v22.5h-319v-22.5zm277,95.876l-94.571,60.417v-118.793h94.571v58.376zm0,17.801v52.823h-82.685l82.685-52.823zm-140.429-17.786l-94.571,60.418v-16.2l94.571-60.417v16.199zm0,17.8v52.809h-82.661l82.661-52.809zm0-51.8l-94.571,60.418v-84.809h94.571v24.391zm-120.571-24.391h11v136.5c0,4.142 3.357,7.5 7.5,7.5h109.571c4.143,0 7.5-3.358 7.5-7.5v-136.5h15.857v136.5c0,4.142 3.357,7.5 7.5,7.5h109.572c4.143,0 7.5-3.358 7.5-7.5v-136.5h11v157h-287v-157zm316,199h-345v-27h345v27z"/>
</svg>
