<svg xmlns="http://www.w3.org/2000/svg" xmlns:xlink="http://www.w3.org/1999/xlink" width="99.615" height="99.271" viewBox="0 0 99.615 99.271"><defs><style>.a{fill:none;}.b{clip-path:url(#a);}.c{fill:#fff;}</style><clipPath id="a"><rect class="a" width="99.615" height="99.27"/></clipPath></defs><g transform="translate(49.808 49.635)"><g class="b" transform="translate(-49.808 -49.635)"><path class="c" d="M75.917,69.791l6.915,6.9a38.451,38.451,0,0,0,8.61-17.064c3.234-14.648.019-27.757-10.09-38.919C72.1,10.516,60.295,6.017,46.718,7.049,22.857,8.841,6.9,29.119,7.332,50.546a42.659,42.659,0,0,0,36.25,41.081A41.2,41.2,0,0,0,63.119,90.01c3.526-1.169,5.766-.467,6.409,1.812s-.74,3.954-4.4,5.084C38.4,105.2,9.806,90.263,2.111,63.655A49.789,49.789,0,1,1,99.1,41.975c2.279,14.8-1.558,28.011-10.967,39.6-2.649,3.272-7.519,3.467-10.85.429-2.045-1.87-3.935-3.935-5.941-5.844-.429-.409-1.286-.857-1.714-.7-4.227,1.578-8.24.467-12.018-1.169-15.778-6.8-27.017-18.076-33.075-34.283a20.472,20.472,0,0,1-.974-3.682c-.682-3.915,0-7.421,3.195-10.149,1.266-1.091,2.318-2.415,3.623-3.448a4.332,4.332,0,0,1,6.058.1c2.61,2.435,5.162,4.967,7.538,7.616,1.948,2.182,1.792,3.993-.195,6.116A48.446,48.446,0,0,1,40.017,40.2a2.014,2.014,0,0,0-.565,2.863c3.779,7.519,9.778,12.8,16.927,16.908a2.787,2.787,0,0,0,2.415-.545c1.539-1.247,2.8-2.8,4.324-4.071,2.2-1.812,4.052-1.675,6.1.312s4.052,4.032,6.077,6.058c3.195,3.234,3.272,4.48.662,8.064" transform="translate(-0.086 0.061)"/></g></g></svg>